<svg width="182" height="50" viewBox="0 0 182 50" fill="none" xmlns="http://www.w3.org/2000/svg">
<path fill-rule="evenodd" clip-rule="evenodd" d="M40.5 5.38367C34.713 9.96249 31 17.0476 31 25C31 32.9524 34.713 40.0375 40.5 44.6163C36.2395 47.9874 30.8547 50 25 50C11.1929 50 0 38.8071 0 25C0 11.1929 11.1929 0 25 0C30.8547 0 36.2395 2.0126 40.5 5.38367Z" fill="#FF6584"/>
<circle cx="60" cy="25" r="25" fill="#F0EA59"/>
<path d="M99.225 34.2C98.0083 34.2 96.925 33.9917 95.975 33.575C95.025 33.1583 94.275 32.5917 93.725 31.875C93.175 31.1417 92.8667 30.325 92.8 29.425H97.025C97.075 29.9083 97.3 30.3 97.7 30.6C98.1 30.9 98.5917 31.05 99.175 31.05C99.7083 31.05 100.117 30.95 100.4 30.75C100.7 30.5333 100.85 30.2583 100.85 29.925C100.85 29.525 100.642 29.2333 100.225 29.05C99.8083 28.85 99.1333 28.6333 98.2 28.4C97.2 28.1667 96.3667 27.925 95.7 27.675C95.0333 27.4083 94.4583 27 93.975 26.45C93.4917 25.8833 93.25 25.125 93.25 24.175C93.25 23.375 93.4667 22.65 93.9 22C94.35 21.3333 95 20.8083 95.85 20.425C96.7167 20.0417 97.7417 19.85 98.925 19.85C100.675 19.85 102.05 20.2833 103.05 21.15C104.067 22.0167 104.65 23.1667 104.8 24.6H100.85C100.783 24.1167 100.567 23.7333 100.2 23.45C99.85 23.1667 99.3833 23.025 98.8 23.025C98.3 23.025 97.9167 23.125 97.65 23.325C97.3833 23.5083 97.25 23.7667 97.25 24.1C97.25 24.5 97.4583 24.8 97.875 25C98.3083 25.2 98.975 25.4 99.875 25.6C100.908 25.8667 101.75 26.1333 102.4 26.4C103.05 26.65 103.617 27.0667 104.1 27.65C104.6 28.2167 104.858 28.9833 104.875 29.95C104.875 30.7667 104.642 31.5 104.175 32.15C103.725 32.7833 103.067 33.2833 102.2 33.65C101.35 34.0167 100.358 34.2 99.225 34.2ZM121.765 20.05V34H117.49V32.1C117.057 32.7167 116.465 33.2167 115.715 33.6C114.982 33.9667 114.165 34.15 113.265 34.15C112.199 34.15 111.257 33.9167 110.44 33.45C109.624 32.9667 108.99 32.275 108.54 31.375C108.09 30.475 107.865 29.4167 107.865 28.2V20.05H112.115V27.625C112.115 28.5583 112.357 29.2833 112.84 29.8C113.324 30.3167 113.974 30.575 114.79 30.575C115.624 30.575 116.282 30.3167 116.765 29.8C117.249 29.2833 117.49 28.5583 117.49 27.625V20.05H121.765ZM133.836 19.9C135.469 19.9 136.769 20.4333 137.736 21.5C138.719 22.55 139.211 24 139.211 25.85V34H134.961V26.425C134.961 25.4917 134.719 24.7667 134.236 24.25C133.753 23.7333 133.103 23.475 132.286 23.475C131.469 23.475 130.819 23.7333 130.336 24.25C129.853 24.7667 129.611 25.4917 129.611 26.425V34H125.336V20.05H129.611V21.9C130.044 21.2833 130.628 20.8 131.361 20.45C132.094 20.0833 132.919 19.9 133.836 19.9Z" fill="#FF6584"/>
<path d="M148.357 34.2C147.14 34.2 146.057 33.9917 145.107 33.575C144.157 33.1583 143.407 32.5917 142.857 31.875C142.307 31.1417 141.999 30.325 141.932 29.425H146.157C146.207 29.9083 146.432 30.3 146.832 30.6C147.232 30.9 147.724 31.05 148.307 31.05C148.84 31.05 149.249 30.95 149.532 30.75C149.832 30.5333 149.982 30.2583 149.982 29.925C149.982 29.525 149.774 29.2333 149.357 29.05C148.94 28.85 148.265 28.6333 147.332 28.4C146.332 28.1667 145.499 27.925 144.832 27.675C144.165 27.4083 143.59 27 143.107 26.45C142.624 25.8833 142.382 25.125 142.382 24.175C142.382 23.375 142.599 22.65 143.032 22C143.482 21.3333 144.132 20.8083 144.982 20.425C145.849 20.0417 146.874 19.85 148.057 19.85C149.807 19.85 151.182 20.2833 152.182 21.15C153.199 22.0167 153.782 23.1667 153.932 24.6H149.982C149.915 24.1167 149.699 23.7333 149.332 23.45C148.982 23.1667 148.515 23.025 147.932 23.025C147.432 23.025 147.049 23.125 146.782 23.325C146.515 23.5083 146.382 23.7667 146.382 24.1C146.382 24.5 146.59 24.8 147.007 25C147.44 25.2 148.107 25.4 149.007 25.6C150.04 25.8667 150.882 26.1333 151.532 26.4C152.182 26.65 152.749 27.0667 153.232 27.65C153.732 28.2167 153.99 28.9833 154.007 29.95C154.007 30.7667 153.774 31.5 153.307 32.15C152.857 32.7833 152.199 33.2833 151.332 33.65C150.482 34.0167 149.49 34.2 148.357 34.2ZM170.272 26.8C170.272 27.2 170.247 27.6167 170.197 28.05H160.522C160.589 28.9167 160.864 29.5833 161.347 30.05C161.847 30.5 162.456 30.725 163.172 30.725C164.239 30.725 164.981 30.275 165.397 29.375H169.947C169.714 30.2917 169.289 31.1167 168.672 31.85C168.072 32.5833 167.314 33.1583 166.397 33.575C165.481 33.9917 164.456 34.2 163.322 34.2C161.956 34.2 160.739 33.9083 159.672 33.325C158.606 32.7417 157.772 31.9083 157.172 30.825C156.572 29.7417 156.272 28.475 156.272 27.025C156.272 25.575 156.564 24.3083 157.147 23.225C157.747 22.1417 158.581 21.3083 159.647 20.725C160.714 20.1417 161.939 19.85 163.322 19.85C164.672 19.85 165.872 20.1333 166.922 20.7C167.972 21.2667 168.789 22.075 169.372 23.125C169.972 24.175 170.272 25.4 170.272 26.8ZM165.897 25.675C165.897 24.9417 165.647 24.3583 165.147 23.925C164.647 23.4917 164.022 23.275 163.272 23.275C162.556 23.275 161.947 23.4833 161.447 23.9C160.964 24.3167 160.664 24.9083 160.547 25.675H165.897ZM180.803 30.375V34H178.628C177.078 34 175.869 33.625 175.003 32.875C174.136 32.1083 173.703 30.8667 173.703 29.15V23.6H172.003V20.05H173.703V16.65H177.978V20.05H180.778V23.6H177.978V29.2C177.978 29.6167 178.078 29.9167 178.278 30.1C178.478 30.2833 178.811 30.375 179.278 30.375H180.803Z" fill="#F0EA59"/>
</svg>
